<svg version="1.2" xmlns="http://www.w3.org/2000/svg" viewBox="37 101.99999999999996 650 596" width="650" height="597"><defs><linearGradient id="P" gradientUnits="userSpaceOnUse"/><linearGradient id="g1" x2="1" href="#P" gradientTransform="matrix(0,604.882,-687.578,0,762.726,99.026)"><stop offset=".44" stop-color="#f29947"/><stop offset=".85" stop-color="#e56d68"/></linearGradient><linearGradient id="g2" x2="1" href="#P" gradientTransform="matrix(0,498.232,-451.436,0,555.31,178.814)"><stop offset=".44" stop-color="#f29947"/><stop offset=".85" stop-color="#e56d68"/></linearGradient><linearGradient id="g3" x2="1" href="#P" gradientTransform="matrix(-343.281,0,0,-226.364,606.241,531.355)"><stop offset=".18" stop-color="#f29947"/><stop offset="1" stop-color="#c46467"/></linearGradient><linearGradient id="g4" x2="1" href="#P" gradientTransform="matrix(-462.638,0,0,-231.121,660.122,356.795)"><stop offset=".18" stop-color="#f29947"/><stop offset="1" stop-color="#c46467"/></linearGradient><linearGradient id="g5" x2="1" href="#P" gradientTransform="matrix(10.318,-265.529,411.604,15.995,-94.028,512.887)"><stop stop-color="#23203c"/><stop offset="1" stop-color="#23203c" stop-opacity="0"/></linearGradient></defs><style>.a{fill:url(#g1)}.b{fill:url(#g2)}.c{fill:url(#g3)}.d{fill:url(#g4)}.e{fill:url(#g5)}</style><path class="a" d="m642.6 182.5c-38.6-51-95.9-80.3-157.2-80.3h-161.3-128.6l-18.8 68h128.6 180.1c39.8 0 77.4 19.5 103 53.3 23.8 31.5 33.9 70.8 28.4 108.1q-1.3 8.4-3.6 16.7-1.2 4.3-2.8 8.5c-8.3 22.9-23.7 44.3-44.1 60.9-23.4 19.2-50.9 29.8-77.4 29.8h-74.2c-110.7 0-207.3 74.9-234.9 182.1l-17.5 68.2h70.2 18.6 23l30.8-106.2c2.1-7.4 5-14.4 8.6-21 13.5-24.9 36.5-43.3 63.6-51 9.3-2.7 19.1-4.1 29.1-4.1h8.5 74.2c42.1 0 84.9-16 120.5-45.1 33.5-27.4 58.1-64.2 69.2-103.7q1.4-4.9 2.6-9.9c13.5-59.6-0.5-124.1-38.6-174.3z"/><path class="b" d="m578.8 230.8c-23.3-30.9-57.3-48.6-93.4-48.6h-183.4-128.7l-18.8 68-4.9 18-72.8 263.2c24.2-43.3 59.3-82 103-112.5 21.1-14.8 43.7-27.4 67.2-37.6l31.2-113.1 5-18h202.2c14.8 0 28.7 7.7 39.2 21.6 9.2 12.1 14 27.1 13.6 41.3-0.1 4.6-0.8 9.1-2 13.4-6.2 22.1-31.2 41-47.3 41h-91.5c-54 0-108.1 13-156.7 36.5-84 40.5-151.7 112.3-175 202.6l-28.4 91.2h112.6l18.3-71.2c6.7-25.9 17.2-50 30.8-71.7 45.6-72.8 126.3-119.4 215.7-119.4h74.2c48.1 0 98.6-40.6 112.7-90.5 3-10.4 4.5-21.1 4.6-31.9 0.4-28.9-9.1-58.2-27.4-82.3z"/><path class="c" d="m578.8 230.8c-23.3-30.9-57.3-48.6-93.4-48.6h-183.4-128.7l-18.8 68-4.9 18-72.8 263.2c24.2-43.3 59.3-82 103-112.5 21.1-14.8 43.7-27.4 67.2-37.6l31.2-113.1 5-18h202.2c14.8 0 28.7 7.7 39.2 21.6 9.2 12.1 14 27.1 13.6 41.3h68c0.4-28.9-9.1-58.2-27.4-82.3z"/><path class="d" d="m642.6 182.5c38.1 50.2 52.1 114.7 38.5 174.3h-70.7q1.6-4.2 2.8-8.5 2.3-8.3 3.6-16.7c5.5-37.3-4.6-76.6-28.4-108.1-25.6-33.8-63.2-53.3-103-53.3h-180.1-128.7l18.8-68h128.7 161.3c61.3 0 118.6 29.3 157.2 80.3z"/><path class="e" d="m173.3 182.2l-18.8 68-4.9 18-72.8 263.2c24.2-43.3 59.3-82 103-112.5 21.1-14.8 43.7-27.4 67.2-37.6l31.2-113.1 5-18 18.8-68z"/></svg>